<svg width="24" height="16" viewBox="0 0 24 16" fill="none" xmlns="http://www.w3.org/2000/svg">
<path d="M19.6131 15.1957C19.5034 15.1957 19.3982 15.1522 19.3206 15.0746C19.243 14.997 19.1994 14.8917 19.1994 14.782V10.8089C19.1994 10.6991 19.1558 10.5939 19.0782 10.5163C19.0006 10.4387 18.8954 10.3951 18.7856 10.3951H14.8136C14.7038 10.3951 14.5986 10.3515 14.521 10.2739C14.4434 10.1963 14.3998 10.0911 14.3998 9.98137V6.01757C14.3998 5.90784 14.3562 5.8026 14.2786 5.725C14.201 5.64741 14.0958 5.60381 13.986 5.60381H10.014C9.90423 5.60381 9.79899 5.64741 9.72139 5.725C9.6438 5.8026 9.60021 5.90784 9.60021 6.01757V9.98137C9.60021 10.0911 9.55662 10.1963 9.47902 10.2739C9.40143 10.3515 9.29619 10.3951 9.18645 10.3951H5.21334C5.10361 10.3951 4.99837 10.4387 4.92077 10.5163C4.84318 10.5939 4.79959 10.6991 4.79959 10.8089V14.782C4.79959 14.8917 4.75599 14.997 4.6784 15.0746C4.6008 15.1522 4.49556 15.1957 4.38583 15.1957H0.413757C0.304022 15.1957 0.198781 15.1522 0.121186 15.0746C0.0435919 14.997 0 14.8917 0 14.782V10.8089C0 10.6991 0.0435919 10.5939 0.121186 10.5163C0.198781 10.4387 0.304022 10.3951 0.413757 10.3951H4.38583C4.49556 10.3951 4.6008 10.3515 4.6784 10.2739C4.75599 10.1963 4.79959 10.0911 4.79959 9.98137V6.0093C4.79959 5.89956 4.84318 5.79432 4.92077 5.71673C4.99837 5.63913 5.10361 5.59554 5.21334 5.59554H9.18645C9.29619 5.59554 9.40143 5.55195 9.47902 5.47435C9.55662 5.39676 9.60021 5.29152 9.60021 5.18178V1.11455C9.60021 1.03225 9.6329 0.953317 9.6911 0.895121C9.74929 0.836925 9.82823 0.80423 9.91053 0.80423H14.0895C14.1718 0.80423 14.2507 0.836925 14.3089 0.895121C14.3671 0.953317 14.3998 1.03225 14.3998 1.11455V5.18178C14.3998 5.29152 14.4434 5.39676 14.521 5.47435C14.5986 5.55195 14.7038 5.59554 14.8136 5.59554H18.7856C18.8954 5.59554 19.0006 5.63913 19.0782 5.71673C19.1558 5.79432 19.1994 5.89956 19.1994 6.0093V9.98137C19.1994 10.0911 19.243 10.1963 19.3206 10.2739C19.3982 10.3515 19.5034 10.3951 19.6131 10.3951H23.5862C23.696 10.3951 23.8012 10.4387 23.8788 10.5163C23.9564 10.5939 24 10.6991 24 10.8089V14.782C24 14.8917 23.9564 14.997 23.8788 15.0746C23.8012 15.1522 23.696 15.1957 23.5862 15.1957H19.6131Z" fill="#3D3D3D"/>
</svg>
